<?xml version="1.0" standalone="no"?>
<!DOCTYPE svg PUBLIC "-//W3C//DTD SVG 20010904//EN"
 "http://www.w3.org/TR/2001/REC-SVG-20010904/DTD/svg10.dtd">
<svg version="1.0" xmlns="http://www.w3.org/2000/svg"
 width="555.000000pt" height="555.000000pt" viewBox="0 0 555.000000 555.000000"
 preserveAspectRatio="xMidYMid meet">
<metadata>
Created by potrace 1.11, written by Peter Selinger 2001-2013
</metadata>
<g transform="translate(0.000000,555.000000) scale(0.100000,-0.100000)"
fill="#000000" stroke="none">
<path d="M3425 4764 c-566 -42 -1156 -252 -1567 -556 -107 -79 -273 -241 -353
-343 -275 -351 -398 -750 -382 -1240 20 -599 264 -1294 607 -1725 271 -341
700 -616 1095 -702 134 -29 465 -36 646 -13 431 54 900 204 1224 390 443 254
721 644 826 1160 19 93 23 151 27 375 l4 265 -624 -3 c-342 -2 -627 -7 -631
-11 -4 -4 -9 -98 -11 -207 -3 -247 -23 -346 -99 -504 -106 -217 -428 -385
-737 -383 -134 0 -230 26 -338 90 -186 110 -347 364 -483 760 -111 326 -154
550 -147 768 6 156 30 252 94 375 186 356 677 515 1035 335 125 -63 204 -136
323 -300 12 -17 17 -18 37 -7 13 7 253 144 534 305 336 193 511 299 513 311 5
22 -108 171 -223 293 -276 295 -608 485 -950 543 -110 18 -326 31 -420 24z"/>
</g>
</svg>
